%TF.GenerationSoftware,KiCad,Pcbnew,(5.1.6)-1*%
%TF.CreationDate,2021-03-24T10:00:36+01:00*%
%TF.ProjectId,09_Alim_de_Bureau,30395f41-6c69-46d5-9f64-655f42757265,rev?*%
%TF.SameCoordinates,Original*%
%TF.FileFunction,Paste,Top*%
%TF.FilePolarity,Positive*%
%FSLAX46Y46*%
G04 Gerber Fmt 4.6, Leading zero omitted, Abs format (unit mm)*
G04 Created by KiCad (PCBNEW (5.1.6)-1) date 2021-03-24 10:00:36*
%MOMM*%
%LPD*%
G01*
G04 APERTURE LIST*
%TA.AperFunction,Profile*%
%ADD10C,0.150000*%
%TD*%
G04 APERTURE END LIST*
D10*
X180000000Y-55000000D02*
X195000000Y-55000000D01*
X157000000Y-55000000D02*
X180000000Y-55000000D01*
X195000000Y-55000000D02*
G75*
G02*
X200000000Y-60000000I0J-5000000D01*
G01*
X200000000Y-150000000D02*
G75*
G02*
X195000000Y-155000000I-5000000J0D01*
G01*
X105000000Y-155000000D02*
G75*
G02*
X100000000Y-150000000I0J5000000D01*
G01*
X100000000Y-60000000D02*
G75*
G02*
X105000000Y-55000000I5000000J0D01*
G01*
X100000000Y-150000000D02*
X100000000Y-60000000D01*
X195000000Y-155000000D02*
X105000000Y-155000000D01*
X200000000Y-60000000D02*
X200000000Y-150000000D01*
X105000000Y-55000000D02*
X157000000Y-55000000D01*
%TO.C,F1*%
G36*
G01*
X160975000Y-72475000D02*
X160975000Y-67525000D01*
G75*
G02*
X161225000Y-67275000I250000J0D01*
G01*
X162825000Y-67275000D01*
G75*
G02*
X163075000Y-67525000I0J-250000D01*
G01*
X163075000Y-72475000D01*
G75*
G02*
X162825000Y-72725000I-250000J0D01*
G01*
X161225000Y-72725000D01*
G75*
G02*
X160975000Y-72475000I0J250000D01*
G01*
G37*
G36*
G01*
X167925000Y-72475000D02*
X167925000Y-67525000D01*
G75*
G02*
X168175000Y-67275000I250000J0D01*
G01*
X169775000Y-67275000D01*
G75*
G02*
X170025000Y-67525000I0J-250000D01*
G01*
X170025000Y-72475000D01*
G75*
G02*
X169775000Y-72725000I-250000J0D01*
G01*
X168175000Y-72725000D01*
G75*
G02*
X167925000Y-72475000I0J250000D01*
G01*
G37*
%TD*%
%TO.C,R1*%
G36*
G01*
X149100000Y-67737500D02*
X149100000Y-67262500D01*
G75*
G02*
X149337500Y-67025000I237500J0D01*
G01*
X149912500Y-67025000D01*
G75*
G02*
X150150000Y-67262500I0J-237500D01*
G01*
X150150000Y-67737500D01*
G75*
G02*
X149912500Y-67975000I-237500J0D01*
G01*
X149337500Y-67975000D01*
G75*
G02*
X149100000Y-67737500I0J237500D01*
G01*
G37*
G36*
G01*
X150850000Y-67737500D02*
X150850000Y-67262500D01*
G75*
G02*
X151087500Y-67025000I237500J0D01*
G01*
X151662500Y-67025000D01*
G75*
G02*
X151900000Y-67262500I0J-237500D01*
G01*
X151900000Y-67737500D01*
G75*
G02*
X151662500Y-67975000I-237500J0D01*
G01*
X151087500Y-67975000D01*
G75*
G02*
X150850000Y-67737500I0J237500D01*
G01*
G37*
%TD*%
%TO.C,F2*%
G36*
G01*
X113025000Y-98425000D02*
X117975000Y-98425000D01*
G75*
G02*
X118225000Y-98675000I0J-250000D01*
G01*
X118225000Y-100275000D01*
G75*
G02*
X117975000Y-100525000I-250000J0D01*
G01*
X113025000Y-100525000D01*
G75*
G02*
X112775000Y-100275000I0J250000D01*
G01*
X112775000Y-98675000D01*
G75*
G02*
X113025000Y-98425000I250000J0D01*
G01*
G37*
G36*
G01*
X113025000Y-91475000D02*
X117975000Y-91475000D01*
G75*
G02*
X118225000Y-91725000I0J-250000D01*
G01*
X118225000Y-93325000D01*
G75*
G02*
X117975000Y-93575000I-250000J0D01*
G01*
X113025000Y-93575000D01*
G75*
G02*
X112775000Y-93325000I0J250000D01*
G01*
X112775000Y-91725000D01*
G75*
G02*
X113025000Y-91475000I250000J0D01*
G01*
G37*
%TD*%
%TO.C,F3*%
G36*
G01*
X122025000Y-91475000D02*
X126975000Y-91475000D01*
G75*
G02*
X127225000Y-91725000I0J-250000D01*
G01*
X127225000Y-93325000D01*
G75*
G02*
X126975000Y-93575000I-250000J0D01*
G01*
X122025000Y-93575000D01*
G75*
G02*
X121775000Y-93325000I0J250000D01*
G01*
X121775000Y-91725000D01*
G75*
G02*
X122025000Y-91475000I250000J0D01*
G01*
G37*
G36*
G01*
X122025000Y-98425000D02*
X126975000Y-98425000D01*
G75*
G02*
X127225000Y-98675000I0J-250000D01*
G01*
X127225000Y-100275000D01*
G75*
G02*
X126975000Y-100525000I-250000J0D01*
G01*
X122025000Y-100525000D01*
G75*
G02*
X121775000Y-100275000I0J250000D01*
G01*
X121775000Y-98675000D01*
G75*
G02*
X122025000Y-98425000I250000J0D01*
G01*
G37*
%TD*%
%TO.C,F4*%
G36*
G01*
X162525000Y-98425000D02*
X167475000Y-98425000D01*
G75*
G02*
X167725000Y-98675000I0J-250000D01*
G01*
X167725000Y-100275000D01*
G75*
G02*
X167475000Y-100525000I-250000J0D01*
G01*
X162525000Y-100525000D01*
G75*
G02*
X162275000Y-100275000I0J250000D01*
G01*
X162275000Y-98675000D01*
G75*
G02*
X162525000Y-98425000I250000J0D01*
G01*
G37*
G36*
G01*
X162525000Y-91475000D02*
X167475000Y-91475000D01*
G75*
G02*
X167725000Y-91725000I0J-250000D01*
G01*
X167725000Y-93325000D01*
G75*
G02*
X167475000Y-93575000I-250000J0D01*
G01*
X162525000Y-93575000D01*
G75*
G02*
X162275000Y-93325000I0J250000D01*
G01*
X162275000Y-91725000D01*
G75*
G02*
X162525000Y-91475000I250000J0D01*
G01*
G37*
%TD*%
%TO.C,F5*%
G36*
G01*
X153525000Y-91475000D02*
X158475000Y-91475000D01*
G75*
G02*
X158725000Y-91725000I0J-250000D01*
G01*
X158725000Y-93325000D01*
G75*
G02*
X158475000Y-93575000I-250000J0D01*
G01*
X153525000Y-93575000D01*
G75*
G02*
X153275000Y-93325000I0J250000D01*
G01*
X153275000Y-91725000D01*
G75*
G02*
X153525000Y-91475000I250000J0D01*
G01*
G37*
G36*
G01*
X153525000Y-98425000D02*
X158475000Y-98425000D01*
G75*
G02*
X158725000Y-98675000I0J-250000D01*
G01*
X158725000Y-100275000D01*
G75*
G02*
X158475000Y-100525000I-250000J0D01*
G01*
X153525000Y-100525000D01*
G75*
G02*
X153275000Y-100275000I0J250000D01*
G01*
X153275000Y-98675000D01*
G75*
G02*
X153525000Y-98425000I250000J0D01*
G01*
G37*
%TD*%
%TO.C,F6*%
G36*
G01*
X183025000Y-115475000D02*
X187975000Y-115475000D01*
G75*
G02*
X188225000Y-115725000I0J-250000D01*
G01*
X188225000Y-117325000D01*
G75*
G02*
X187975000Y-117575000I-250000J0D01*
G01*
X183025000Y-117575000D01*
G75*
G02*
X182775000Y-117325000I0J250000D01*
G01*
X182775000Y-115725000D01*
G75*
G02*
X183025000Y-115475000I250000J0D01*
G01*
G37*
G36*
G01*
X183025000Y-122425000D02*
X187975000Y-122425000D01*
G75*
G02*
X188225000Y-122675000I0J-250000D01*
G01*
X188225000Y-124275000D01*
G75*
G02*
X187975000Y-124525000I-250000J0D01*
G01*
X183025000Y-124525000D01*
G75*
G02*
X182775000Y-124275000I0J250000D01*
G01*
X182775000Y-122675000D01*
G75*
G02*
X183025000Y-122425000I250000J0D01*
G01*
G37*
%TD*%
%TO.C,F7*%
G36*
G01*
X173025000Y-115475000D02*
X177975000Y-115475000D01*
G75*
G02*
X178225000Y-115725000I0J-250000D01*
G01*
X178225000Y-117325000D01*
G75*
G02*
X177975000Y-117575000I-250000J0D01*
G01*
X173025000Y-117575000D01*
G75*
G02*
X172775000Y-117325000I0J250000D01*
G01*
X172775000Y-115725000D01*
G75*
G02*
X173025000Y-115475000I250000J0D01*
G01*
G37*
G36*
G01*
X173025000Y-122425000D02*
X177975000Y-122425000D01*
G75*
G02*
X178225000Y-122675000I0J-250000D01*
G01*
X178225000Y-124275000D01*
G75*
G02*
X177975000Y-124525000I-250000J0D01*
G01*
X173025000Y-124525000D01*
G75*
G02*
X172775000Y-124275000I0J250000D01*
G01*
X172775000Y-122675000D01*
G75*
G02*
X173025000Y-122425000I250000J0D01*
G01*
G37*
%TD*%
%TO.C,F8*%
G36*
G01*
X143025000Y-133425000D02*
X147975000Y-133425000D01*
G75*
G02*
X148225000Y-133675000I0J-250000D01*
G01*
X148225000Y-135275000D01*
G75*
G02*
X147975000Y-135525000I-250000J0D01*
G01*
X143025000Y-135525000D01*
G75*
G02*
X142775000Y-135275000I0J250000D01*
G01*
X142775000Y-133675000D01*
G75*
G02*
X143025000Y-133425000I250000J0D01*
G01*
G37*
G36*
G01*
X143025000Y-126475000D02*
X147975000Y-126475000D01*
G75*
G02*
X148225000Y-126725000I0J-250000D01*
G01*
X148225000Y-128325000D01*
G75*
G02*
X147975000Y-128575000I-250000J0D01*
G01*
X143025000Y-128575000D01*
G75*
G02*
X142775000Y-128325000I0J250000D01*
G01*
X142775000Y-126725000D01*
G75*
G02*
X143025000Y-126475000I250000J0D01*
G01*
G37*
%TD*%
%TO.C,F9*%
G36*
G01*
X152525000Y-133425000D02*
X157475000Y-133425000D01*
G75*
G02*
X157725000Y-133675000I0J-250000D01*
G01*
X157725000Y-135275000D01*
G75*
G02*
X157475000Y-135525000I-250000J0D01*
G01*
X152525000Y-135525000D01*
G75*
G02*
X152275000Y-135275000I0J250000D01*
G01*
X152275000Y-133675000D01*
G75*
G02*
X152525000Y-133425000I250000J0D01*
G01*
G37*
G36*
G01*
X152525000Y-126475000D02*
X157475000Y-126475000D01*
G75*
G02*
X157725000Y-126725000I0J-250000D01*
G01*
X157725000Y-128325000D01*
G75*
G02*
X157475000Y-128575000I-250000J0D01*
G01*
X152525000Y-128575000D01*
G75*
G02*
X152275000Y-128325000I0J250000D01*
G01*
X152275000Y-126725000D01*
G75*
G02*
X152525000Y-126475000I250000J0D01*
G01*
G37*
%TD*%
%TO.C,F10*%
G36*
G01*
X131025000Y-127475000D02*
X135975000Y-127475000D01*
G75*
G02*
X136225000Y-127725000I0J-250000D01*
G01*
X136225000Y-129325000D01*
G75*
G02*
X135975000Y-129575000I-250000J0D01*
G01*
X131025000Y-129575000D01*
G75*
G02*
X130775000Y-129325000I0J250000D01*
G01*
X130775000Y-127725000D01*
G75*
G02*
X131025000Y-127475000I250000J0D01*
G01*
G37*
G36*
G01*
X131025000Y-134425000D02*
X135975000Y-134425000D01*
G75*
G02*
X136225000Y-134675000I0J-250000D01*
G01*
X136225000Y-136275000D01*
G75*
G02*
X135975000Y-136525000I-250000J0D01*
G01*
X131025000Y-136525000D01*
G75*
G02*
X130775000Y-136275000I0J250000D01*
G01*
X130775000Y-134675000D01*
G75*
G02*
X131025000Y-134425000I250000J0D01*
G01*
G37*
%TD*%
%TO.C,F11*%
G36*
G01*
X118525000Y-127475000D02*
X123475000Y-127475000D01*
G75*
G02*
X123725000Y-127725000I0J-250000D01*
G01*
X123725000Y-129325000D01*
G75*
G02*
X123475000Y-129575000I-250000J0D01*
G01*
X118525000Y-129575000D01*
G75*
G02*
X118275000Y-129325000I0J250000D01*
G01*
X118275000Y-127725000D01*
G75*
G02*
X118525000Y-127475000I250000J0D01*
G01*
G37*
G36*
G01*
X118525000Y-134425000D02*
X123475000Y-134425000D01*
G75*
G02*
X123725000Y-134675000I0J-250000D01*
G01*
X123725000Y-136275000D01*
G75*
G02*
X123475000Y-136525000I-250000J0D01*
G01*
X118525000Y-136525000D01*
G75*
G02*
X118275000Y-136275000I0J250000D01*
G01*
X118275000Y-134675000D01*
G75*
G02*
X118525000Y-134425000I250000J0D01*
G01*
G37*
%TD*%
%TO.C,F12*%
G36*
G01*
X125525000Y-123925000D02*
X130475000Y-123925000D01*
G75*
G02*
X130725000Y-124175000I0J-250000D01*
G01*
X130725000Y-125775000D01*
G75*
G02*
X130475000Y-126025000I-250000J0D01*
G01*
X125525000Y-126025000D01*
G75*
G02*
X125275000Y-125775000I0J250000D01*
G01*
X125275000Y-124175000D01*
G75*
G02*
X125525000Y-123925000I250000J0D01*
G01*
G37*
G36*
G01*
X125525000Y-116975000D02*
X130475000Y-116975000D01*
G75*
G02*
X130725000Y-117225000I0J-250000D01*
G01*
X130725000Y-118825000D01*
G75*
G02*
X130475000Y-119075000I-250000J0D01*
G01*
X125525000Y-119075000D01*
G75*
G02*
X125275000Y-118825000I0J250000D01*
G01*
X125275000Y-117225000D01*
G75*
G02*
X125525000Y-116975000I250000J0D01*
G01*
G37*
%TD*%
%TO.C,F13*%
G36*
G01*
X112025000Y-123925000D02*
X116975000Y-123925000D01*
G75*
G02*
X117225000Y-124175000I0J-250000D01*
G01*
X117225000Y-125775000D01*
G75*
G02*
X116975000Y-126025000I-250000J0D01*
G01*
X112025000Y-126025000D01*
G75*
G02*
X111775000Y-125775000I0J250000D01*
G01*
X111775000Y-124175000D01*
G75*
G02*
X112025000Y-123925000I250000J0D01*
G01*
G37*
G36*
G01*
X112025000Y-116975000D02*
X116975000Y-116975000D01*
G75*
G02*
X117225000Y-117225000I0J-250000D01*
G01*
X117225000Y-118825000D01*
G75*
G02*
X116975000Y-119075000I-250000J0D01*
G01*
X112025000Y-119075000D01*
G75*
G02*
X111775000Y-118825000I0J250000D01*
G01*
X111775000Y-117225000D01*
G75*
G02*
X112025000Y-116975000I250000J0D01*
G01*
G37*
%TD*%
M02*
