M48
; DRILL file {KiCad (5.1.6)-1} date 03/24/21 10:00:39
; FORMAT={-:-/ absolute / inch / decimal}
; #@! TF.CreationDate,2021-03-24T10:00:39+01:00
; #@! TF.GenerationSoftware,Kicad,Pcbnew,(5.1.6)-1
; #@! TF.FileFunction,Plated,1,2,PTH
FMAT,2
INCH
T1C0.0197
T2C0.0236
T3C0.0315
T4C0.0354
T5C0.0374
T6C0.0394
T7C0.0551
T8C0.1260
%
G90
G05
T1
X7.5827Y-2.3622
X7.6104Y-2.2954
X7.6104Y-2.429
X7.6772Y-2.2677
X7.6772Y-2.4567
X7.744Y-2.2954
X7.744Y-2.429
X7.7717Y-2.3622
X4.0394Y-2.3622
X4.067Y-2.2954
X4.067Y-2.429
X4.1339Y-2.2677
X4.1339Y-2.4567
X4.2007Y-2.2954
X4.2007Y-2.429
X4.2283Y-2.3622
X7.5827Y-5.9055
X7.6104Y-5.8387
X7.6104Y-5.9723
X7.6772Y-5.811
X7.6772Y-6.0
X7.744Y-5.8387
X7.744Y-5.9723
X7.7717Y-5.9055
X4.0394Y-5.9055
X4.067Y-5.8387
X4.067Y-5.9723
X4.1339Y-5.811
X4.1339Y-6.0
X4.2007Y-5.8387
X4.2007Y-5.9723
X4.2283Y-5.9055
T2
X4.1339Y-2.5591
X4.1339Y-2.7559
X4.1339Y-2.9528
X4.1339Y-3.1496
X4.1339Y-3.3465
X4.1339Y-3.5433
X4.1339Y-3.7402
X4.1339Y-3.937
X4.1339Y-4.1339
X4.1339Y-4.3307
X4.1339Y-4.5276
X4.1339Y-4.7244
X4.1339Y-4.9213
X4.1339Y-5.1181
X4.1339Y-5.315
X4.1339Y-5.5118
X4.1339Y-5.7087
X4.3307Y-2.3622
X4.3307Y-5.9055
X4.5276Y-2.3622
X4.7244Y-2.3622
X4.7638Y-4.8622
X4.9213Y-2.3622
X4.9213Y-5.9055
X5.1181Y-2.3622
X5.2559Y-4.8622
X5.315Y-2.3622
X5.315Y-4.3307
X5.315Y-4.5276
X5.315Y-4.7244
X5.5118Y-2.3622
X5.5118Y-4.3307
X5.5118Y-4.5276
X5.5118Y-4.7244
X5.5118Y-5.1181
X5.5118Y-5.9055
X5.7087Y-2.3622
X5.7087Y-3.7402
X5.7087Y-3.7402
X5.7087Y-3.937
X5.7087Y-4.1339
X5.7087Y-4.3307
X5.7087Y-4.5276
X5.7087Y-4.7244
X5.9055Y-2.3622
X5.9055Y-3.7402
X5.9055Y-3.937
X5.9055Y-4.5276
X5.9055Y-4.7244
X5.9055Y-5.9055
X6.1024Y-2.3622
X6.1024Y-4.7244
X6.2992Y-2.3622
X6.2992Y-4.7244
X6.2992Y-5.9055
X6.4961Y-2.3622
X6.4961Y-4.9213
X6.4961Y-5.1181
X6.4961Y-5.315
X6.4961Y-5.5118
X6.4961Y-5.7087
X6.6929Y-2.3622
X6.6929Y-4.9213
X6.6929Y-5.7087
X6.8898Y-2.3622
X6.8898Y-3.937
X6.8898Y-4.1339
X6.8898Y-4.3307
X6.8898Y-5.7087
X7.0866Y-2.3622
X7.0866Y-5.5118
X7.0866Y-5.7087
X7.2835Y-2.3622
X7.2835Y-5.7087
X7.4803Y-2.3622
X7.4803Y-3.937
X7.4803Y-4.1339
X7.4803Y-4.3307
X7.4803Y-5.1181
X7.4803Y-5.315
X7.4803Y-5.5118
X7.4803Y-5.7087
X7.6772Y-2.5591
X7.6772Y-2.7559
X7.6772Y-2.9528
X7.6772Y-3.1496
X7.6772Y-3.3465
X7.6772Y-3.5433
X7.6772Y-3.7402
T3
X7.126Y-4.2717
X7.2756Y-4.2717
X7.126Y-3.3071
X7.2756Y-3.3071
T4
X5.9843Y-2.7953
X5.9843Y-2.8953
T5
X4.5669Y-5.5315
X4.6654Y-5.5315
X4.7638Y-5.5315
X5.0591Y-5.5315
X5.1575Y-5.5315
X5.2559Y-5.5315
T6
X6.811Y-5.0984
X6.9094Y-5.0984
X4.4488Y-4.1142
X4.5472Y-4.1142
X6.8898Y-2.7559
X6.9882Y-2.7559
X5.6299Y-5.5315
X5.7283Y-5.5315
X6.0433Y-4.1535
X6.1417Y-4.1535
X5.374Y-3.7008
X5.4724Y-3.7008
X6.3976Y-4.1535
X6.4961Y-4.1535
X4.8031Y-4.1142
X4.9016Y-4.1142
X6.0039Y-5.5315
X6.1024Y-5.5315
X7.2047Y-5.0984
X7.3031Y-5.0984
X7.126Y-3.6811
X7.126Y-3.7811
X7.126Y-3.8811
T7
X4.8425Y-3.1496
X4.8425Y-3.3661
X5.0079Y-3.1496
X5.0079Y-3.3661
X5.1732Y-3.1496
X5.1732Y-3.3661
X5.3386Y-3.1496
X5.3386Y-3.3661
X5.5039Y-3.1496
X5.5039Y-3.3661
X5.6693Y-3.1496
X5.6693Y-3.3661
X5.8346Y-3.1496
X5.8346Y-3.3661
X6.0Y-3.1496
X6.0Y-3.3661
X6.1654Y-3.1496
X6.1654Y-3.3661
X6.3307Y-3.1496
X6.3307Y-3.3661
X6.4961Y-3.1496
X6.4961Y-3.3661
X6.6614Y-3.1496
X6.6614Y-3.3661
T8
X4.1339Y-5.9055
X7.6772Y-2.3622
X4.1339Y-2.3622
X7.6772Y-5.9055
T0
M30
