%TF.GenerationSoftware,KiCad,Pcbnew,(5.1.6)-1*%
%TF.CreationDate,2021-03-24T10:00:36+01:00*%
%TF.ProjectId,09_Alim_de_Bureau,30395f41-6c69-46d5-9f64-655f42757265,rev?*%
%TF.SameCoordinates,Original*%
%TF.FileFunction,Soldermask,Bot*%
%TF.FilePolarity,Negative*%
%FSLAX46Y46*%
G04 Gerber Fmt 4.6, Leading zero omitted, Abs format (unit mm)*
G04 Created by KiCad (PCBNEW (5.1.6)-1) date 2021-03-24 10:00:36*
%MOMM*%
%LPD*%
G01*
G04 APERTURE LIST*
%TA.AperFunction,Profile*%
%ADD10C,0.150000*%
%TD*%
%ADD11C,0.900000*%
%ADD12C,6.500000*%
%ADD13O,1.800000X2.100000*%
%ADD14O,2.800000X3.400000*%
%ADD15R,1.900000X1.900000*%
%ADD16C,1.900000*%
%ADD17R,1.700000X1.700000*%
%ADD18C,1.700000*%
%ADD19R,2.600000X1.600000*%
%ADD20O,2.600000X1.600000*%
%ADD21O,1.800000X2.050000*%
G04 APERTURE END LIST*
D10*
X180000000Y-55000000D02*
X195000000Y-55000000D01*
X157000000Y-55000000D02*
X180000000Y-55000000D01*
X195000000Y-55000000D02*
G75*
G02*
X200000000Y-60000000I0J-5000000D01*
G01*
X200000000Y-150000000D02*
G75*
G02*
X195000000Y-155000000I-5000000J0D01*
G01*
X105000000Y-155000000D02*
G75*
G02*
X100000000Y-150000000I0J5000000D01*
G01*
X100000000Y-60000000D02*
G75*
G02*
X105000000Y-55000000I5000000J0D01*
G01*
X100000000Y-150000000D02*
X100000000Y-60000000D01*
X195000000Y-155000000D02*
X105000000Y-155000000D01*
X200000000Y-60000000D02*
X200000000Y-150000000D01*
X105000000Y-55000000D02*
X157000000Y-55000000D01*
D11*
%TO.C,H3*%
X196697056Y-148302944D03*
X195000000Y-147600000D03*
X193302944Y-148302944D03*
X192600000Y-150000000D03*
X193302944Y-151697056D03*
X195000000Y-152400000D03*
X196697056Y-151697056D03*
X197400000Y-150000000D03*
D12*
X195000000Y-150000000D03*
%TD*%
D11*
%TO.C,H1*%
X106697056Y-58302944D03*
X105000000Y-57600000D03*
X103302944Y-58302944D03*
X102600000Y-60000000D03*
X103302944Y-61697056D03*
X105000000Y-62400000D03*
X106697056Y-61697056D03*
X107400000Y-60000000D03*
D12*
X105000000Y-60000000D03*
%TD*%
D11*
%TO.C,H2*%
X196697056Y-58302944D03*
X195000000Y-57600000D03*
X193302944Y-58302944D03*
X192600000Y-60000000D03*
X193302944Y-61697056D03*
X195000000Y-62400000D03*
X196697056Y-61697056D03*
X197400000Y-60000000D03*
D12*
X195000000Y-60000000D03*
%TD*%
D11*
%TO.C,H4*%
X106697056Y-148302944D03*
X105000000Y-147600000D03*
X103302944Y-148302944D03*
X102600000Y-150000000D03*
X103302944Y-151697056D03*
X105000000Y-152400000D03*
X106697056Y-151697056D03*
X107400000Y-150000000D03*
D12*
X105000000Y-150000000D03*
%TD*%
%TO.C,J10*%
G36*
G01*
X151600000Y-141285294D02*
X151600000Y-139714706D01*
G75*
G02*
X151864706Y-139450000I264706J0D01*
G01*
X153135294Y-139450000D01*
G75*
G02*
X153400000Y-139714706I0J-264706D01*
G01*
X153400000Y-141285294D01*
G75*
G02*
X153135294Y-141550000I-264706J0D01*
G01*
X151864706Y-141550000D01*
G75*
G02*
X151600000Y-141285294I0J264706D01*
G01*
G37*
D13*
X155000000Y-140500000D03*
%TD*%
%TO.C,J3*%
G36*
G01*
X121600000Y-81440740D02*
X121600000Y-78559260D01*
G75*
G02*
X121859260Y-78300000I259260J0D01*
G01*
X124140740Y-78300000D01*
G75*
G02*
X124400000Y-78559260I0J-259260D01*
G01*
X124400000Y-81440740D01*
G75*
G02*
X124140740Y-81700000I-259260J0D01*
G01*
X121859260Y-81700000D01*
G75*
G02*
X121600000Y-81440740I0J259260D01*
G01*
G37*
D14*
X127200000Y-80000000D03*
X131400000Y-80000000D03*
X135600000Y-80000000D03*
X139800000Y-80000000D03*
X144000000Y-80000000D03*
X148200000Y-80000000D03*
X152400000Y-80000000D03*
X156600000Y-80000000D03*
X160800000Y-80000000D03*
X165000000Y-80000000D03*
X169200000Y-80000000D03*
X123000000Y-85500000D03*
X127200000Y-85500000D03*
X131400000Y-85500000D03*
X135600000Y-85500000D03*
X139800000Y-85500000D03*
X144000000Y-85500000D03*
X148200000Y-85500000D03*
X152400000Y-85500000D03*
X156600000Y-85500000D03*
X160800000Y-85500000D03*
X165000000Y-85500000D03*
X169200000Y-85500000D03*
%TD*%
D15*
%TO.C,D1*%
X152000000Y-71000000D03*
D16*
X152000000Y-73540000D03*
%TD*%
%TO.C,J1*%
G36*
G01*
X178400000Y-69214706D02*
X178400000Y-70785294D01*
G75*
G02*
X178135294Y-71050000I-264706J0D01*
G01*
X176864706Y-71050000D01*
G75*
G02*
X176600000Y-70785294I0J264706D01*
G01*
X176600000Y-69214706D01*
G75*
G02*
X176864706Y-68950000I264706J0D01*
G01*
X178135294Y-68950000D01*
G75*
G02*
X178400000Y-69214706I0J-264706D01*
G01*
G37*
D13*
X175000000Y-70000000D03*
%TD*%
%TO.C,J2*%
G36*
G01*
X135600000Y-94785294D02*
X135600000Y-93214706D01*
G75*
G02*
X135864706Y-92950000I264706J0D01*
G01*
X137135294Y-92950000D01*
G75*
G02*
X137400000Y-93214706I0J-264706D01*
G01*
X137400000Y-94785294D01*
G75*
G02*
X137135294Y-95050000I-264706J0D01*
G01*
X135864706Y-95050000D01*
G75*
G02*
X135600000Y-94785294I0J264706D01*
G01*
G37*
X139000000Y-94000000D03*
%TD*%
%TO.C,J4*%
G36*
G01*
X112100000Y-105285294D02*
X112100000Y-103714706D01*
G75*
G02*
X112364706Y-103450000I264706J0D01*
G01*
X113635294Y-103450000D01*
G75*
G02*
X113900000Y-103714706I0J-264706D01*
G01*
X113900000Y-105285294D01*
G75*
G02*
X113635294Y-105550000I-264706J0D01*
G01*
X112364706Y-105550000D01*
G75*
G02*
X112100000Y-105285294I0J264706D01*
G01*
G37*
X115500000Y-104500000D03*
%TD*%
%TO.C,J5*%
X124500000Y-104500000D03*
G36*
G01*
X121100000Y-105285294D02*
X121100000Y-103714706D01*
G75*
G02*
X121364706Y-103450000I264706J0D01*
G01*
X122635294Y-103450000D01*
G75*
G02*
X122900000Y-103714706I0J-264706D01*
G01*
X122900000Y-105285294D01*
G75*
G02*
X122635294Y-105550000I-264706J0D01*
G01*
X121364706Y-105550000D01*
G75*
G02*
X121100000Y-105285294I0J264706D01*
G01*
G37*
%TD*%
%TO.C,J6*%
G36*
G01*
X152600000Y-106285294D02*
X152600000Y-104714706D01*
G75*
G02*
X152864706Y-104450000I264706J0D01*
G01*
X154135294Y-104450000D01*
G75*
G02*
X154400000Y-104714706I0J-264706D01*
G01*
X154400000Y-106285294D01*
G75*
G02*
X154135294Y-106550000I-264706J0D01*
G01*
X152864706Y-106550000D01*
G75*
G02*
X152600000Y-106285294I0J264706D01*
G01*
G37*
X156000000Y-105500000D03*
%TD*%
%TO.C,J7*%
X165000000Y-105500000D03*
G36*
G01*
X161600000Y-106285294D02*
X161600000Y-104714706D01*
G75*
G02*
X161864706Y-104450000I264706J0D01*
G01*
X163135294Y-104450000D01*
G75*
G02*
X163400000Y-104714706I0J-264706D01*
G01*
X163400000Y-106285294D01*
G75*
G02*
X163135294Y-106550000I-264706J0D01*
G01*
X161864706Y-106550000D01*
G75*
G02*
X161600000Y-106285294I0J264706D01*
G01*
G37*
%TD*%
%TO.C,J8*%
X175500000Y-129500000D03*
G36*
G01*
X172100000Y-130285294D02*
X172100000Y-128714706D01*
G75*
G02*
X172364706Y-128450000I264706J0D01*
G01*
X173635294Y-128450000D01*
G75*
G02*
X173900000Y-128714706I0J-264706D01*
G01*
X173900000Y-130285294D01*
G75*
G02*
X173635294Y-130550000I-264706J0D01*
G01*
X172364706Y-130550000D01*
G75*
G02*
X172100000Y-130285294I0J264706D01*
G01*
G37*
%TD*%
%TO.C,J9*%
G36*
G01*
X182100000Y-130285294D02*
X182100000Y-128714706D01*
G75*
G02*
X182364706Y-128450000I264706J0D01*
G01*
X183635294Y-128450000D01*
G75*
G02*
X183900000Y-128714706I0J-264706D01*
G01*
X183900000Y-130285294D01*
G75*
G02*
X183635294Y-130550000I-264706J0D01*
G01*
X182364706Y-130550000D01*
G75*
G02*
X182100000Y-130285294I0J264706D01*
G01*
G37*
X185500000Y-129500000D03*
%TD*%
%TO.C,J11*%
X145500000Y-140500000D03*
G36*
G01*
X142100000Y-141285294D02*
X142100000Y-139714706D01*
G75*
G02*
X142364706Y-139450000I264706J0D01*
G01*
X143635294Y-139450000D01*
G75*
G02*
X143900000Y-139714706I0J-264706D01*
G01*
X143900000Y-141285294D01*
G75*
G02*
X143635294Y-141550000I-264706J0D01*
G01*
X142364706Y-141550000D01*
G75*
G02*
X142100000Y-141285294I0J264706D01*
G01*
G37*
%TD*%
D17*
%TO.C,C1*%
X181000000Y-84000000D03*
D18*
X184800000Y-84000000D03*
%TD*%
%TO.C,C2*%
X184800000Y-108500000D03*
D17*
X181000000Y-108500000D03*
%TD*%
D19*
%TO.C,U1*%
X181000000Y-93500000D03*
D20*
X181000000Y-96040000D03*
X181000000Y-98580000D03*
%TD*%
D21*
%TO.C,J12*%
X121000000Y-140500000D03*
X118500000Y-140500000D03*
G36*
G01*
X115100000Y-141260294D02*
X115100000Y-139739706D01*
G75*
G02*
X115364706Y-139475000I264706J0D01*
G01*
X116635294Y-139475000D01*
G75*
G02*
X116900000Y-139739706I0J-264706D01*
G01*
X116900000Y-141260294D01*
G75*
G02*
X116635294Y-141525000I-264706J0D01*
G01*
X115364706Y-141525000D01*
G75*
G02*
X115100000Y-141260294I0J264706D01*
G01*
G37*
%TD*%
%TO.C,J13*%
G36*
G01*
X127600000Y-141260294D02*
X127600000Y-139739706D01*
G75*
G02*
X127864706Y-139475000I264706J0D01*
G01*
X129135294Y-139475000D01*
G75*
G02*
X129400000Y-139739706I0J-264706D01*
G01*
X129400000Y-141260294D01*
G75*
G02*
X129135294Y-141525000I-264706J0D01*
G01*
X127864706Y-141525000D01*
G75*
G02*
X127600000Y-141260294I0J264706D01*
G01*
G37*
X131000000Y-140500000D03*
X133500000Y-140500000D03*
%TD*%
M02*
